<svg data-v-423bf9ae="" xmlns="http://www.w3.org/2000/svg" viewBox="0 0 529 90" class="iconLeft"><!----><!----><!----><g data-v-423bf9ae="" id="94f6e423-4830-4ec3-bd61-245acc71689c" fill="#292523" transform="matrix(4.4280445297660425,0,0,4.4280445297660425,106.28045021340225,-0.9409603617036808)"><path d="M3.46 14.52C5.04 14.52 5.99 13.68 5.99 12.47C5.99 11.26 5.24 10.67 3.86 10.36L3.12 10.21C2.24 10.01 1.71 9.60 1.71 8.81C1.71 7.97 2.35 7.56 3.40 7.56C4.51 7.56 5.11 7.97 5.11 8.79L5.11 9.30L5.78 9.30L5.78 7.18L5.11 7.18L5.11 7.83L5.07 7.83C4.86 7.38 4.26 7.01 3.29 7.01C1.86 7.01 0.90 7.73 0.90 8.95C0.90 10.18 1.65 10.78 2.98 11.06L3.75 11.23C4.66 11.42 5.15 11.84 5.15 12.63C5.15 13.54 4.48 13.97 3.32 13.97C2.14 13.97 1.51 13.47 1.51 12.60L1.51 12.24L0.84 12.24L0.84 14.35L1.51 14.35L1.51 13.61L1.55 13.61C1.81 14.08 2.48 14.52 3.46 14.52ZM10.78 14.52C12.29 14.52 13.10 13.61 13.47 12.71L13.09 12.49C12.70 13.24 12.08 13.85 10.89 13.85C9.45 13.85 8.51 12.75 8.51 11.10L8.51 10.19C8.51 8.64 9.46 7.53 10.93 7.53C11.54 7.53 11.98 7.62 12.29 7.81L12.29 7.85C11.98 7.98 11.79 8.23 11.79 8.57C11.79 8.95 12.03 9.25 12.49 9.25C12.92 9.25 13.20 8.96 13.20 8.50C13.20 7.66 12.24 7.01 10.85 7.01C8.88 7.01 7.55 8.40 7.55 10.77C7.55 13.09 8.76 14.52 10.78 14.52ZM14.70 14.35L18.06 14.35L18.06 13.85L16.67 13.85L16.67 9.25C16.67 8.39 17.61 7.48 18.44 7.48C18.55 7.48 18.73 7.49 18.79 7.50L18.79 7.53C18.62 7.56 18.47 7.77 18.47 8.06C18.47 8.41 18.73 8.67 19.14 8.67C19.52 8.67 19.78 8.40 19.78 7.95C19.78 7.35 19.33 7.01 18.62 7.01C17.56 7.01 16.98 7.71 16.72 8.36L16.65 8.36L16.65 7.04L14.70 7.36L14.70 7.74L15.81 7.90L15.81 13.85L14.70 13.85ZM22.16 5.29C22.57 5.29 22.79 5.03 22.79 4.69L22.79 4.63C22.79 4.30 22.57 4.03 22.16 4.03C21.76 4.03 21.53 4.30 21.53 4.63L21.53 4.69C21.53 5.03 21.76 5.29 22.16 5.29ZM20.62 14.35L23.70 14.35L23.70 13.85L22.60 13.85L22.60 7.04L20.62 7.36L20.62 7.74L21.73 7.90L21.73 13.85L20.62 13.85ZM24.63 17.15L27.99 17.15L27.99 16.65L26.60 16.65L26.60 13.23L26.66 13.23C26.95 13.93 27.68 14.52 28.87 14.52C30.70 14.52 31.86 13.22 31.86 10.77C31.86 8.32 30.70 7.01 28.87 7.01C27.68 7.01 26.96 7.62 26.66 8.30L26.60 8.30L26.60 7.04L24.63 7.36L24.63 7.74L25.73 7.88L25.73 16.65L24.63 16.65ZM28.64 13.92C27.61 13.92 26.60 13.30 26.60 12.31L26.60 9.23C26.60 8.23 27.61 7.62 28.64 7.62C30.09 7.62 30.91 8.65 30.91 10.26L30.91 11.26C30.91 12.88 30.09 13.92 28.64 13.92ZM35.31 14.41C35.87 14.41 36.69 14.32 37.04 14.20L37.04 13.80L35.11 13.80L35.11 7.73L37.04 7.73L37.04 7.18L35.11 7.18L35.11 5.25L34.61 5.25L34.38 6.58C34.30 7.00 34.16 7.18 33.47 7.18L33.28 7.18L33.28 7.73L34.24 7.73L34.24 13.40C34.24 14.14 34.50 14.41 35.31 14.41ZM40.92 14.52C42.50 14.52 43.46 13.68 43.46 12.47C43.46 11.26 42.70 10.67 41.33 10.36L40.59 10.21C39.70 10.01 39.17 9.60 39.17 8.81C39.17 7.97 39.82 7.56 40.87 7.56C41.97 7.56 42.57 7.97 42.57 8.79L42.57 9.30L43.25 9.30L43.25 7.18L42.57 7.18L42.57 7.83L42.53 7.83C42.32 7.38 41.72 7.01 40.75 7.01C39.33 7.01 38.36 7.73 38.36 8.95C38.36 10.18 39.12 10.78 40.45 11.06L41.22 11.23C42.13 11.42 42.62 11.84 42.62 12.63C42.62 13.54 41.94 13.97 40.78 13.97C39.61 13.97 38.98 13.47 38.98 12.60L38.98 12.24L38.30 12.24L38.30 14.35L38.98 14.35L38.98 13.61L39.02 13.61C39.27 14.08 39.94 14.52 40.92 14.52ZM51.62 14.52C52.79 14.52 53.77 14.06 54.47 13.22L54.84 13.61C55.34 14.13 55.76 14.35 56.50 14.35L57.19 14.35L57.19 13.85C56.38 13.85 56.01 13.66 55.57 13.20L54.94 12.54C55.36 11.79 55.61 10.84 55.66 9.73L56.84 9.73L56.84 9.21L53.97 9.21L53.97 9.73L55.09 9.73C55.05 10.65 54.88 11.48 54.56 12.15L51.67 9.13C53.14 8.43 54.28 7.56 54.28 6.37C54.28 5.25 53.33 4.41 51.87 4.41C50.29 4.41 49.29 5.29 49.29 6.62C49.29 7.50 49.76 8.27 50.43 8.97L50.58 9.14C49.29 9.80 48.40 10.54 48.40 11.93C48.40 13.54 49.71 14.52 51.62 14.52ZM51.28 8.72C50.67 8.08 50.16 7.42 50.16 6.69L50.16 6.51C50.16 5.64 50.76 4.93 51.83 4.93C52.79 4.93 53.47 5.52 53.47 6.37L53.47 6.57C53.47 7.45 52.72 8.11 51.34 8.78ZM51.67 13.94C50.32 13.94 49.35 13.22 49.35 12.04L49.35 11.79C49.35 10.75 49.81 10.07 50.92 9.49L54.12 12.85C53.58 13.54 52.78 13.94 51.67 13.94ZM64.82 14.52C66.33 14.52 67.14 13.61 67.51 12.71L67.13 12.49C66.74 13.24 66.12 13.85 64.93 13.85C63.49 13.85 62.55 12.75 62.55 11.10L62.55 10.19C62.55 8.64 63.50 7.53 64.97 7.53C65.58 7.53 66.02 7.62 66.33 7.81L66.33 7.85C66.02 7.98 65.83 8.23 65.83 8.57C65.83 8.95 66.07 9.25 66.53 9.25C66.96 9.25 67.24 8.96 67.24 8.50C67.24 7.66 66.28 7.01 64.89 7.01C62.92 7.01 61.59 8.40 61.59 10.77C61.59 13.09 62.80 14.52 64.82 14.52ZM68.50 14.35L71.58 14.35L71.58 13.85L70.48 13.85L70.48 9.21C70.48 8.15 71.41 7.62 72.37 7.62C73.61 7.62 74.23 8.33 74.23 9.80L74.23 13.85L73.12 13.85L73.12 14.35L76.20 14.35L76.20 13.85L75.10 13.85L75.10 9.72C75.10 7.92 74.37 7.01 72.66 7.01C71.44 7.01 70.77 7.66 70.53 8.29L70.48 8.29L70.48 3.60L68.50 3.92L68.50 4.30L69.61 4.45L69.61 13.85L68.50 13.85ZM78.85 5.29C79.25 5.29 79.48 5.03 79.48 4.69L79.48 4.63C79.48 4.30 79.25 4.03 78.85 4.03C78.44 4.03 78.22 4.30 78.22 4.63L78.22 4.69C78.22 5.03 78.44 5.29 78.85 5.29ZM77.31 14.35L80.39 14.35L80.39 13.85L79.28 13.85L79.28 7.04L77.31 7.36L77.31 7.74L78.41 7.90L78.41 13.85L77.31 13.85ZM81.31 17.15L84.67 17.15L84.67 16.65L83.29 16.65L83.29 13.23L83.34 13.23C83.64 13.93 84.36 14.52 85.55 14.52C87.39 14.52 88.55 13.22 88.55 10.77C88.55 8.32 87.39 7.01 85.55 7.01C84.36 7.01 83.65 7.62 83.34 8.30L83.29 8.30L83.29 7.04L81.31 7.36L81.31 7.74L82.42 7.88L82.42 16.65L81.31 16.65ZM85.33 13.92C84.29 13.92 83.29 13.30 83.29 12.31L83.29 9.23C83.29 8.23 84.29 7.62 85.33 7.62C86.77 7.62 87.60 8.65 87.60 10.26L87.60 11.26C87.60 12.88 86.77 13.92 85.33 13.92ZM92.79 14.52C94.37 14.52 95.33 13.68 95.33 12.47C95.33 11.26 94.57 10.67 93.20 10.36L92.46 10.21C91.57 10.01 91.04 9.60 91.04 8.81C91.04 7.97 91.69 7.56 92.74 7.56C93.84 7.56 94.44 7.97 94.44 8.79L94.44 9.30L95.12 9.30L95.12 7.18L94.44 7.18L94.44 7.83L94.40 7.83C94.19 7.38 93.59 7.01 92.62 7.01C91.20 7.01 90.23 7.73 90.23 8.95C90.23 10.18 90.99 10.78 92.32 11.06L93.09 11.23C94.00 11.42 94.49 11.84 94.49 12.63C94.49 13.54 93.81 13.97 92.65 13.97C91.48 13.97 90.85 13.47 90.85 12.60L90.85 12.24L90.17 12.24L90.17 14.35L90.85 14.35L90.85 13.61L90.89 13.61C91.14 14.08 91.81 14.52 92.79 14.52Z"></path></g><defs data-v-423bf9ae=""><linearGradient data-v-423bf9ae="" gradientTransform="rotate(25)" id="7e1fb095-9dce-477f-8334-bbfff7a7810e" x1="0%" y1="0%" x2="100%" y2="0%"><stop data-v-423bf9ae="" offset="0%" style="stop-color: rgb(86, 63, 51); stop-opacity: 1;"></stop><stop data-v-423bf9ae="" offset="100%" style="stop-color: rgb(163, 161, 161); stop-opacity: 1;"></stop></linearGradient></defs><g data-v-423bf9ae="" id="d03c90e5-0d08-441f-98cd-62cf969f2251" transform="matrix(1.5,0,0,1.5,0,0)" stroke="none" fill="url(#7e1fb095-9dce-477f-8334-bbfff7a7810e)"><g><path d="M2 58h56V2H2v56zm57 2H1a1 1 0 01-1-1V1a1 1 0 011-1h58a1 1 0 011 1v58a1 1 0 01-1 1z"></path><path d="M46 55c-4.963 0-9-4.038-9-9a1 1 0 112 0c0 3.86 3.141 7 7 7s7-3.14 7-7-3.141-7-7-7c-4.963 0-9-4.038-9-9s4.037-9 9-9 9 4.038 9 9a1 1 0 11-2 0c0-3.86-3.141-7-7-7s-7 3.14-7 7 3.141 7 7 7c4.963 0 9 4.038 9 9s-4.037 9-9 9M25 55c-4.963 0-9-4.038-9-9a1 1 0 112 0c0 3.86 3.141 7 7 7s7-3.14 7-7V22a1 1 0 112 0v24c0 4.962-4.037 9-9 9"></path></g></g><!----></svg>